<svg version="1.1" xmlns="http://www.w3.org/2000/svg" viewBox="0 0 883 379" width="2649" height="1137">
  <!-- svg-source:excalidraw -->
  
  <defs>
    <style class="style-fonts">
      @font-face {
        font-family: "Virgil";
        src: url("https://excalidraw.com/Virgil.woff2");
      }
      @font-face {
        font-family: "Cascadia";
        src: url("https://excalidraw.com/Cascadia.woff2");
      }
    </style>
  </defs>
  <g stroke-linecap="round" transform="translate(10 179.5) rotate(0 102 35)"><path d="M17.5 0 M17.5 0 C71.99 3.08, 125.6 0.04, 186.5 0 M17.5 0 C55 0.5, 92.55 0.12, 186.5 0 M186.5 0 C198.1 1.06, 202.55 6.53, 204 17.5 M186.5 0 C196.63 0.03, 202.35 6.57, 204 17.5 M204 17.5 C204.41 30.58, 203.18 41.84, 204 52.5 M204 17.5 C204.71 30.35, 204.17 41.26, 204 52.5 M204 52.5 C203.42 63.56, 198.11 70.05, 186.5 70 M204 52.5 C204.31 63.98, 199.52 69.61, 186.5 70 M186.5 70 C130.77 66.86, 76.34 67.99, 17.5 70 M186.5 70 C128.26 69.53, 71.22 70.26, 17.5 70 M17.5 70 C6.13 70.98, -1.21 63.05, 0 52.5 M17.5 70 C6 69.1, -0.11 62.87, 0 52.5 M0 52.5 C-1.18 39.77, -0.14 26.25, 0 17.5 M0 52.5 C-0.16 41.92, 0.73 29.43, 0 17.5 M0 17.5 C-0.42 7.55, 5.27 -0.71, 17.5 0 M0 17.5 C-0.71 5.84, 5.92 -0.64, 17.5 0" stroke="#1e1e1e" stroke-width="1" fill="none"></path></g><g transform="translate(78.8499984741211 202) rotate(0 33.150001525878906 12.5)"><text x="0" y="0" font-family="Virgil, Segoe UI Emoji" font-size="20px" fill="#1e1e1e" text-anchor="start" style="white-space: pre;" direction="ltr" dominant-baseline="text-before-edge">Beatle</text></g><g stroke-linecap="round"><g transform="translate(221 214.29046225276625) rotate(0 59.35131562850961 0.20953774723375318)"><path d="M0.41 -0.71 C20.41 -0.78, 99.47 -1.14, 119.54 -1.12 M-0.83 1.54 C19.01 1.63, 98.12 0.02, 118.35 -0.17" stroke="#1971c2" stroke-width="4" fill="none"></path></g><g transform="translate(221 214.29046225276625) rotate(0 59.35131562850961 0.20953774723375318)"><path d="M89.13 9.75 C95.83 9.01, 104.02 5.76, 119.96 -1.14 M90.37 10.08 C97.32 8.24, 103.92 4.38, 117.51 -0.11" stroke="#1971c2" stroke-width="4" fill="none"></path></g><g transform="translate(221 214.29046225276625) rotate(0 59.35131562850961 0.20953774723375318)"><path d="M88.82 -10.77 C95.47 -6.15, 103.75 -4.05, 119.96 -1.14 M90.06 -10.44 C96.93 -7.33, 103.61 -6.24, 117.51 -0.11" stroke="#1971c2" stroke-width="4" fill="none"></path></g></g><mask></mask><g stroke-linecap="round" transform="translate(346 152.5) rotate(0 70 62)"><path d="M40.46 6.53 C49.39 2.13, 63.77 0.63, 74.61 0.92 C85.45 1.21, 96.14 3.56, 105.48 8.26 C114.82 12.96, 124.81 20.85, 130.65 29.13 C136.49 37.4, 140.02 48.21, 140.51 57.93 C141.01 67.66, 138.33 78.66, 133.65 87.46 C128.96 96.27, 120.89 104.99, 112.4 110.75 C103.91 116.51, 93.09 120.42, 82.7 122.01 C72.31 123.6, 60.5 123.04, 50.06 120.29 C39.62 117.54, 27.79 112.09, 20.07 105.5 C12.34 98.91, 6.72 89.85, 3.72 80.76 C0.71 71.67, 0.28 60.44, 2.02 50.96 C3.75 41.47, 6.97 31.59, 14.15 23.87 C21.33 16.15, 39.45 8.01, 45.11 4.64 C50.78 1.27, 47.74 2.74, 48.15 3.63 M65.74 0.28 C75.92 -1.3, 90.42 1.09, 100.41 5.28 C110.4 9.48, 119.13 17.88, 125.69 25.43 C132.25 32.98, 138.12 41.48, 139.76 50.58 C141.4 59.68, 138.83 70.78, 135.53 80.04 C132.22 89.3, 127.7 99.4, 119.96 106.14 C112.21 112.87, 99.46 117.44, 89.05 120.45 C78.65 123.47, 67.98 126, 57.54 124.23 C47.11 122.47, 35.05 115.89, 26.45 109.85 C17.85 103.81, 10.21 96.52, 5.96 87.99 C1.71 79.46, 0.19 68.65, 0.94 58.67 C1.69 48.69, 4.68 36.41, 10.47 28.1 C16.26 19.8, 26.45 13.45, 35.68 8.83 C44.91 4.21, 60.63 1.79, 65.88 0.36 C71.12 -1.07, 67.12 -0.54, 67.13 0.25" stroke="#1e1e1e" stroke-width="1" fill="none"></path></g><g transform="translate(385.1499996185303 189.5) rotate(0 30.850000381469727 25)"><text x="0" y="0" font-family="Virgil, Segoe UI Emoji" font-size="20px" fill="#1e1e1e" text-anchor="start" style="white-space: pre;" direction="ltr" dominant-baseline="text-before-edge">NATS</text><text x="0" y="25" font-family="Virgil, Segoe UI Emoji" font-size="20px" fill="#1e1e1e" text-anchor="start" style="white-space: pre;" direction="ltr" dominant-baseline="text-before-edge">Server</text></g><g stroke-linecap="round"><g transform="translate(492.30550592323266 207.42229046864384) rotate(0 86.70340384464032 -53.42229046864384)"><path d="M-0.95 1 C27.88 -16.57, 143.23 -88.2, 172.01 -106.26 M0.75 0.49 C30.05 -17.33, 145.46 -90.09, 174.36 -107.85" stroke="#1971c2" stroke-width="4" fill="none"></path></g><g transform="translate(492.30550592323266 207.42229046864384) rotate(0 86.70340384464032 -53.42229046864384)"><path d="M157.54 -85.37 C161.78 -90.86, 164.01 -92.57, 172.72 -107.44 M156.7 -85.03 C160.45 -89.87, 164.53 -96.97, 174.66 -108.64" stroke="#1971c2" stroke-width="4" fill="none"></path></g><g transform="translate(492.30550592323266 207.42229046864384) rotate(0 86.70340384464032 -53.42229046864384)"><path d="M146.68 -102.79 C153.19 -104.36, 157.81 -102.24, 172.72 -107.44 M145.84 -102.45 C152.57 -102.79, 159.5 -105.33, 174.66 -108.64" stroke="#1971c2" stroke-width="4" fill="none"></path></g></g><mask></mask><g stroke-linecap="round"><g transform="translate(489.66780627285493 210.2178274351511) rotate(0 88.5006285441695 66.28217256484885)"><path d="M-0.03 0.13 C29.82 22.17, 148.81 111.22, 178.51 133.41 M-1.51 -0.85 C28.25 21.32, 147.85 108.85, 177.66 131.43" stroke="#1971c2" stroke-width="4" fill="none"></path></g><g transform="translate(489.66780627285493 210.2178274351511) rotate(0 88.5006285441695 66.28217256484885)"><path d="M149.13 123.15 C156.64 124.8, 163.6 128.67, 176.64 130.25 M148.67 123.56 C157.15 125.79, 168.33 128.12, 177.66 132.38" stroke="#1971c2" stroke-width="4" fill="none"></path></g><g transform="translate(489.66780627285493 210.2178274351511) rotate(0 88.5006285441695 66.28217256484885)"><path d="M161.36 106.68 C165.97 112.45, 169.86 120.45, 176.64 130.25 M160.91 107.09 C165.47 114.62, 172.73 122.23, 177.66 132.38" stroke="#1971c2" stroke-width="4" fill="none"></path></g></g><mask></mask><g stroke-linecap="round" transform="translate(669 60) rotate(0 102 35)"><path d="M17.5 0 M17.5 0 C74.24 0.65, 133.99 0.92, 186.5 0 M17.5 0 C52.8 -0.55, 87.72 -1.37, 186.5 0 M186.5 0 C197.4 1.32, 203.59 4.38, 204 17.5 M186.5 0 C198.65 -1.07, 203.78 5.53, 204 17.5 M204 17.5 C203.34 28.99, 202.82 41.62, 204 52.5 M204 17.5 C203.08 26.52, 202.85 35.93, 204 52.5 M204 52.5 C204.18 62.58, 196.64 70.21, 186.5 70 M204 52.5 C203.82 62.5, 198.67 68.77, 186.5 70 M186.5 70 C135.69 69.83, 86.13 69.46, 17.5 70 M186.5 70 C149.95 68.62, 113.74 68.07, 17.5 70 M17.5 70 C4.08 70.37, 0.76 65.52, 0 52.5 M17.5 70 C4.75 68.77, 0.03 65.98, 0 52.5 M0 52.5 C1.73 45.69, -1.49 39.02, 0 17.5 M0 52.5 C-0.38 44.99, -0.83 37.31, 0 17.5 M0 17.5 C-0.34 5.63, 5.46 -1.39, 17.5 0 M0 17.5 C-0.29 6.19, 6.24 0.76, 17.5 0" stroke="#1e1e1e" stroke-width="1" fill="none"></path></g><g transform="translate(737.8499984741211 82.5) rotate(0 33.150001525878906 12.5)"><text x="0" y="0" font-family="Virgil, Segoe UI Emoji" font-size="20px" fill="#1e1e1e" text-anchor="start" style="white-space: pre;" direction="ltr" dominant-baseline="text-before-edge">Beatle</text></g><g stroke-linecap="round" transform="translate(669 181) rotate(0 102 35)"><path d="M17.5 0 M17.5 0 C79.13 1.4, 144.02 1.21, 186.5 0 M17.5 0 C60.45 0.41, 106.03 0.8, 186.5 0 M186.5 0 C199.73 0.76, 203.38 6.88, 204 17.5 M186.5 0 C198.4 -1.88, 201.84 5.25, 204 17.5 M204 17.5 C202.11 29.49, 204.09 43.42, 204 52.5 M204 17.5 C202.96 28.93, 203.41 41.39, 204 52.5 M204 52.5 C204.12 63.93, 198.27 69.1, 186.5 70 M204 52.5 C205.52 66.43, 196.3 70.52, 186.5 70 M186.5 70 C126.88 68.61, 69.46 69.04, 17.5 70 M186.5 70 C119.01 70.44, 51.56 69.69, 17.5 70 M17.5 70 C7.25 68.78, 0.92 65.25, 0 52.5 M17.5 70 C4.3 69.16, -2.27 63.51, 0 52.5 M0 52.5 C-1.41 42.19, -0.78 29.42, 0 17.5 M0 52.5 C-0.3 42.81, -1.06 34.5, 0 17.5 M0 17.5 C-1.13 6.09, 6.45 1.64, 17.5 0 M0 17.5 C2.04 4.32, 6.77 -2.12, 17.5 0" stroke="#1e1e1e" stroke-width="1" fill="none"></path></g><g transform="translate(737.8499984741211 203.5) rotate(0 33.150001525878906 12.5)"><text x="0" y="0" font-family="Virgil, Segoe UI Emoji" font-size="20px" fill="#1e1e1e" text-anchor="start" style="white-space: pre;" direction="ltr" dominant-baseline="text-before-edge">Beatle</text></g><g stroke-linecap="round" transform="translate(669 299) rotate(0 102 35)"><path d="M17.5 0 M17.5 0 C77.77 2.95, 135.01 -0.34, 186.5 0 M17.5 0 C69.39 1.74, 121.77 1.96, 186.5 0 M186.5 0 C198.41 0.75, 204.14 7.38, 204 17.5 M186.5 0 C199.8 1.46, 204.79 4.43, 204 17.5 M204 17.5 C204.73 27.53, 203.72 38.41, 204 52.5 M204 17.5 C204.26 30.02, 203.58 42.74, 204 52.5 M204 52.5 C203.92 65.06, 199.58 70.81, 186.5 70 M204 52.5 C205.9 65.31, 197.13 67.87, 186.5 70 M186.5 70 C124.98 69.27, 66.95 67.79, 17.5 70 M186.5 70 C148.3 69.66, 108.18 68.17, 17.5 70 M17.5 70 C7.44 68.85, 0.98 64.97, 0 52.5 M17.5 70 C4.1 67.95, 1.37 66.43, 0 52.5 M0 52.5 C1.37 42.32, -1 33.87, 0 17.5 M0 52.5 C0.72 45.25, 0.26 37.79, 0 17.5 M0 17.5 C0.12 6.59, 7.75 -0.65, 17.5 0 M0 17.5 C-1.3 5.74, 4.97 2.06, 17.5 0" stroke="#1e1e1e" stroke-width="1" fill="none"></path></g><g transform="translate(737.8499984741211 321.5) rotate(0 44.58333206176758 12.5)"><text x="0" y="0" font-family="Virgil, Segoe UI Emoji" font-size="20px" fill="#1e1e1e" text-anchor="start" style="white-space: pre;" direction="ltr" dominant-baseline="text-before-edge">Beatle N</text></g><g stroke-linecap="round"><g transform="translate(490.28157418778073 208.8456033151905) rotate(0 88.30728062719152 5.654396684809541)"><path d="M0.2 -0.96 C29.74 0.96, 148.26 10.29, 177.76 12.27 M-1.15 1.15 C28.28 2.66, 147.72 8.71, 177.36 10.49" stroke="#1971c2" stroke-width="4" fill="none"></path></g><g transform="translate(490.28157418778073 208.8456033151905) rotate(0 88.30728062719152 5.654396684809541)"><path d="M147.05 20.94 C159.59 16.96, 167.23 12.99, 179.29 8.91 M147.82 20.2 C156.26 16.67, 165.51 14.91, 177.42 11.05" stroke="#1971c2" stroke-width="4" fill="none"></path></g><g transform="translate(490.28157418778073 208.8456033151905) rotate(0 88.30728062719152 5.654396684809541)"><path d="M148.17 0.45 C160.46 3.54, 167.71 6.62, 179.29 8.91 M148.94 -0.29 C156.9 1.93, 165.83 5.9, 177.42 11.05" stroke="#1971c2" stroke-width="4" fill="none"></path></g></g><mask></mask><g transform="translate(236 180) rotate(0 32.93333435058594 10)"><text x="0" y="0" font-family="Virgil, Segoe UI Emoji" font-size="16px" fill="#1971c2" text-anchor="start" style="white-space: pre;" direction="ltr" dominant-baseline="text-before-edge">Message</text></g><g transform="translate(556.0666656494141 248) rotate(35.394795844987065 32.93333435058594 10)"><text x="0" y="0" font-family="Virgil, Segoe UI Emoji" font-size="16px" fill="#1971c2" text-anchor="start" style="white-space: pre;" direction="ltr" dominant-baseline="text-before-edge">Message</text></g><g transform="translate(546.0666656494141 115) rotate(327.2647737278924 32.93333435058594 10)"><text x="0" y="0" font-family="Virgil, Segoe UI Emoji" font-size="16px" fill="#1971c2" text-anchor="start" style="white-space: pre;" direction="ltr" dominant-baseline="text-before-edge">Message</text></g><g transform="translate(565.0666656494141 182) rotate(3.945186229037551 32.93333435058594 10)"><text x="0" y="0" font-family="Virgil, Segoe UI Emoji" font-size="16px" fill="#1971c2" text-anchor="start" style="white-space: pre;" direction="ltr" dominant-baseline="text-before-edge">Message</text></g><g transform="translate(21 129.5) rotate(0 58.61666488647461 22.5)"><text x="0" y="0" font-family="Virgil, Segoe UI Emoji" font-size="36px" fill="#2f9e44" text-anchor="start" style="white-space: pre;" direction="ltr" dominant-baseline="text-before-edge">Publish</text></g><g transform="translate(675 10) rotate(0 79.80000305175781 22.5)"><text x="0" y="0" font-family="Virgil, Segoe UI Emoji" font-size="36px" fill="#2f9e44" text-anchor="start" style="white-space: pre;" direction="ltr" dominant-baseline="text-before-edge">Subscribe</text></g></svg>